# xmcd CD Database Entry
#
# Track frame offsets:
# 150
# 15777
# 29062
# 45402
# 60797
# 83655
# 97570
# 109762
# 126790
# 140895
#
# Disc length: 2035 seconds
#
# Revision: 4
# Processed by: cddbd v1.4PL0 Copyright (c) Steve Scherf et al.
# Submitted via: tcd 2.0b
#
DISCID=6d07f10a
DTITLE=Johnny Paycheck - Biggest Hits
DYEAR=1900
DGENRE=
TTITLE0=I Can't Hold Myself In Line
TTITLE1=She's All I Got
TTITLE2=Colorado Cool-Aid
TTITLE3=Yesterday's News Just Hit Home Today
TTITLE4=The Outlaw's Prayer
TTITLE5=Drinkin' And Drivin'
TTITLE6=Fifteen Beers
TTITLE7=11 Months And 29 Days
TTITLE8=Friend, Lover, Wife
TTITLE9=Take This Job And Shove It
EXTD=DISC: 1\nUPC: 074643832229\nLABEL: Epic\nENSORECORD: 112535\n
EXTD=
EXTT0=PERFORMER: Johnny Paycheck\n
EXTT1=PERFORMER: Johnny Paycheck\n
EXTT2=PERFORMER: Johnny Paycheck\n
EXTT3=PERFORMER: Johnny Paycheck\n
EXTT4=PERFORMER: Johnny Paycheck\n
EXTT5=PERFORMER: Johnny Paycheck\n
EXTT6=PERFORMER: Johnny Paycheck\n
EXTT7=PERFORMER: Johnny Paycheck\n
EXTT8=PERFORMER: Johnny Paycheck\n
EXTT9=PERFORMER: Johnny Paycheck\n
PLAYORDER=
